<svg width="326" height="39" viewBox="0 0 326 39" fill="none" xmlns="http://www.w3.org/2000/svg">
<path d="M15.3828 1.58008C14.2578 1.58008 13.1152 1.70312 11.9551 1.94922C10.8066 2.18359 9.59961 2.62305 8.33398 3.26758C7.08008 3.91211 5.97266 4.72656 5.01172 5.71094C4.05078 6.69531 3.25977 8.00781 2.63867 9.64844C2.01758 11.2773 1.70703 13.123 1.70703 15.1855C1.70703 17.248 2.01758 19.0996 2.63867 20.7402C3.25977 22.3691 4.05078 23.6699 5.01172 24.6426C5.97266 25.6035 7.08008 26.4062 8.33398 27.0508C9.59961 27.6836 10.8066 28.1172 11.9551 28.3516C13.1152 28.5977 14.2578 28.7207 15.3828 28.7207C17.1523 28.7207 18.7402 28.5508 20.1465 28.2109C21.5527 27.8828 23.1465 27.3672 24.9277 26.6641C24.4004 25.2227 24.1367 23.4004 24.1367 21.1973V18.5957C24.1367 17.7402 26.0879 17.1777 29.9902 16.9082C30.1191 16.627 30.1191 16.3516 29.9902 16.082C26.9199 16.1758 24.5234 16.2227 22.8008 16.2227C21.3594 16.2227 19.3203 16.1758 16.6836 16.082C16.6016 16.3516 16.6016 16.627 16.6836 16.9082C19.3906 17.1777 20.7441 17.7402 20.7441 18.5957V25.7324C19.7363 26.8809 17.9492 27.4551 15.3828 27.4551C14.0117 27.4551 12.7637 27.2031 11.6387 26.6992C10.5137 26.1953 9.58203 25.5332 8.84375 24.7129C8.11719 23.8809 7.50781 22.9199 7.01562 21.8301C6.52344 20.7402 6.16602 19.6445 5.94336 18.543C5.73242 17.4297 5.62695 16.3105 5.62695 15.1855C5.62695 13.7441 5.80273 12.3379 6.1543 10.9668C6.51758 9.58398 7.0625 8.27148 7.78906 7.0293C8.52734 5.77539 9.54688 4.76172 10.8477 3.98828C12.1602 3.21484 13.6719 2.82812 15.3828 2.82812C16.5312 2.82812 17.5977 3.00977 18.582 3.37305C19.5664 3.73633 20.375 4.16406 21.0078 4.65625C21.6523 5.14844 22.2734 5.81055 22.8711 6.64258C23.4688 7.46289 23.9199 8.17773 24.2246 8.78711C24.541 9.38477 24.916 10.1465 25.3496 11.0723C25.7129 11.0254 25.9297 10.8965 26 10.6855C25.1328 7.20508 23.8203 4.82031 22.0625 3.53125C20.3164 2.23047 18.0898 1.58008 15.3828 1.58008ZM24.9277 11.8633C24.4238 10.7383 23.9609 9.8125 23.5391 9.08594C23.1172 8.34766 22.5488 7.52734 21.834 6.625C21.1309 5.71094 20.293 5.00195 19.3203 4.49805C18.3477 3.99414 17.2637 3.68945 16.0684 3.58398C14.6973 3.66602 13.4902 4.08203 12.4473 4.83203C11.4043 5.57031 10.5957 6.51953 10.0215 7.67969C9.44727 8.83984 9.01953 10.0527 8.73828 11.3184C8.45703 12.5723 8.31641 13.8613 8.31641 15.1855C8.31641 17.0137 8.5625 18.7598 9.05469 20.4238C9.54688 22.0879 10.4082 23.5586 11.6387 24.8359C12.8809 26.1016 14.4043 26.7344 16.209 26.7344C17.8848 26.7344 19.1562 26.3066 20.0234 25.4512V18.5957C20.0234 18.1973 18.7168 17.8633 16.1035 17.5938C15.7871 16.7734 15.8105 16.0176 16.1738 15.3262C19.6777 15.4902 24.5234 15.5254 30.7109 15.4316C30.9805 16.1348 30.9922 16.8555 30.7461 17.5938C28.1328 17.8633 26.8262 18.1973 26.8262 18.5957V21.1973C26.8262 23.3301 27.1602 25.2988 27.8281 27.1035C26.1758 27.7246 24.9453 28.1523 24.1367 28.3867C23.3398 28.6328 22.1797 28.8672 20.6562 29.0898C19.1328 29.3242 17.375 29.4414 15.3828 29.4414C14.1758 29.4414 12.9688 29.3125 11.7617 29.0547C10.5547 28.8086 9.28906 28.3516 7.96484 27.6836C6.64062 27.0039 5.47461 26.1543 4.4668 25.1348C3.45898 24.1152 2.62695 22.75 1.9707 21.0391C1.31445 19.3164 0.986328 17.3652 0.986328 15.1855C0.986328 13.0059 1.30859 11.0605 1.95312 9.34961C2.59766 7.62695 3.41797 6.25 4.41406 5.21875C5.41016 4.1875 6.55859 3.33203 7.85938 2.65234C9.17188 1.96094 10.4258 1.49219 11.6211 1.24609C12.8281 0.988281 14.0352 0.859375 15.2422 0.859375C17.1875 0.859375 19.3438 1.10547 21.7109 1.59766C24.0898 2.08984 25.6016 2.37109 26.2461 2.44141C25.8711 3.95312 25.7246 5.2832 25.8066 6.43164C25.8887 7.56836 26.2168 8.96289 26.791 10.6152C26.4512 11.3066 25.8301 11.7227 24.9277 11.8633ZM61.0684 27.2793C60.4121 27.2441 59.7734 27.1973 59.1523 27.1387C58.543 27.0684 57.9863 26.9746 57.4824 26.8574C56.9785 26.7402 56.5508 26.5879 56.1992 26.4004C55.8594 26.2012 55.6367 25.9551 55.5312 25.6621L45.8105 1.65039C45.6113 1.66211 45.418 1.74414 45.2305 1.89648C45.1484 3.34961 44.7031 4.51562 43.8945 5.39453L44.2988 6.43164L36.8809 25.082C36.4121 26.2539 34.9707 26.9863 32.5566 27.2793C32.4863 27.4434 32.4512 27.5898 32.4512 27.7188C32.4512 27.8594 32.4863 28 32.5566 28.1406C33.8926 28.0938 34.9648 28.0586 35.7734 28.0352C36.5938 28.0117 37.1562 28 37.4609 28C37.7305 28 38.3398 28.0117 39.2891 28.0352C40.25 28.0586 41.5508 28.0938 43.1914 28.1406C43.2617 28 43.2969 27.8594 43.2969 27.7188C43.2969 27.5898 43.2617 27.4434 43.1914 27.2793C42.2188 27.1855 41.4277 27.0859 40.8184 26.9805C40.209 26.8633 39.7344 26.7402 39.3945 26.6113C39.0547 26.4824 38.8262 26.3418 38.709 26.1895C38.5918 26.0254 38.5332 25.8438 38.5332 25.6445C38.5332 25.5156 38.5566 25.3867 38.6035 25.2578L41.1699 18.8242C42.4707 18.8008 43.5195 18.7832 44.3164 18.7715C45.125 18.7598 45.6816 18.7539 45.9863 18.7539C46.6543 18.7539 47.2461 18.7598 47.7617 18.7715C48.2891 18.7715 48.7402 18.7773 49.1152 18.7891L51.6641 25.2578C51.7227 25.4336 51.752 25.5684 51.752 25.6621C51.752 25.9785 51.5879 26.2598 51.2598 26.5059C50.9434 26.752 50.5508 26.9219 50.082 27.0156L48.1836 27.2793C48.1133 27.4434 48.0781 27.5898 48.0781 27.7188C48.0781 27.8594 48.1133 28 48.1836 28.1406C49.1797 28.1055 50.1875 28.0762 51.207 28.0527C52.2383 28.0293 53.293 28.0176 54.3711 28.0176C55.4492 28.0176 56.5391 28.0293 57.6406 28.0527C58.7539 28.0762 59.8965 28.1055 61.0684 28.1406C61.1504 27.9766 61.1914 27.8359 61.1914 27.7188C61.1914 27.6484 61.1797 27.5781 61.1562 27.5078C61.1328 27.4375 61.1035 27.3613 61.0684 27.2793ZM45.9863 17.3828C44.2871 17.3828 42.8867 17.3594 41.7852 17.3125L45.125 8.69922H45.1953L48.5527 17.3477C47.9199 17.3711 47.0645 17.3828 45.9863 17.3828ZM45.1602 10.5449L42.8223 16.627C44.2402 16.6973 45.7988 16.709 47.498 16.6621L45.1602 10.5449ZM61.6133 26.6289C61.9062 27.332 61.8945 28.0762 61.5781 28.8613H47.6387C47.3574 28.0527 47.3574 27.3086 47.6387 26.6289C48.916 26.5586 49.8184 26.4297 50.3457 26.2422C50.873 26.043 51.0547 25.7266 50.8906 25.293L48.5879 19.4746C46.4199 19.3926 44.0996 19.416 41.627 19.5449L39.3594 25.3633C39.2891 25.5625 39.3418 25.7441 39.5176 25.9082C39.7051 26.0605 40.0039 26.1836 40.4141 26.2773C40.8242 26.3711 41.3047 26.4473 41.8555 26.5059C42.4062 26.5645 43.0273 26.6055 43.7188 26.6289C44.0117 27.332 44 28.0762 43.6836 28.8613C39.8398 28.7207 35.9668 28.7207 32.0645 28.8613C31.748 28.0762 31.7363 27.332 32.0293 26.6289C34.4434 26.3477 35.8086 25.8203 36.125 25.0469L43.543 6.39648C43.4961 6.30273 43.4023 6.0918 43.2617 5.76367C43.1328 5.42383 43.0566 5.20117 43.0332 5.0957C43.9473 4.16992 44.4512 2.97461 44.5449 1.50977C45.5762 1.00586 46.7891 0.71875 48.1836 0.648438L58.0449 25.1172C58.2676 25.668 58.6191 26.0371 59.0996 26.2246C59.5801 26.4004 60.418 26.5352 61.6133 26.6289ZM92.3574 3.67188C91.1855 3.76562 90.2539 3.91211 89.5625 4.11133C88.8828 4.29883 88.4316 4.65625 88.209 5.18359L78.541 29.2305H76.7305L66.3242 5.42969C65.8906 4.46875 64.5371 3.88281 62.2637 3.67188C62.0645 2.89844 62.0879 2.14258 62.334 1.4043C67.7598 1.56836 72.4648 1.5918 76.4492 1.47461C76.6836 2.14258 76.6836 2.88672 76.4492 3.70703C74.9375 3.82422 73.9883 3.95312 73.6016 4.09375C73.2148 4.23438 73.1035 4.52148 73.2676 4.95508L79.2969 18.9648L84.8691 4.95508C84.9395 4.76758 84.8867 4.60352 84.7109 4.46289C84.5469 4.31055 84.2656 4.1875 83.8672 4.09375C83.4805 4 83.0879 3.92383 82.6895 3.86523C82.291 3.80664 81.8047 3.75391 81.2305 3.70703C81.043 2.93359 81.0664 2.17773 81.3008 1.43945C85.168 1.58008 88.8301 1.56836 92.2871 1.4043C92.5215 2.14258 92.5449 2.89844 92.3574 3.67188ZM91.7773 2.98633C91.8711 2.64648 91.8711 2.37109 91.7773 2.16016C90.2422 2.23047 88.6719 2.26562 87.0664 2.26562C85.5312 2.26562 83.791 2.23047 81.8457 2.16016C81.752 2.37109 81.752 2.64648 81.8457 2.98633C82.373 3.0332 82.8125 3.08008 83.1641 3.12695C83.5273 3.17383 83.9668 3.26172 84.4824 3.39062C84.998 3.51953 85.3555 3.71875 85.5547 3.98828C85.7656 4.25781 85.8008 4.56836 85.6602 4.91992L78.3828 23.2188L70.6133 5.14844C70.2734 4.35156 70.4082 3.83594 71.0176 3.60156C71.6387 3.35547 73.2207 3.15039 75.7637 2.98633C75.8574 2.64648 75.8574 2.37109 75.7637 2.16016C72.3066 2.32422 68 2.32422 62.8438 2.16016C62.7383 2.37109 62.7383 2.64648 62.8438 2.98633C65.0469 3.19727 66.4238 3.91797 66.9746 5.14844L77.2051 28.5098H78.0312L87.541 4.91992C87.8691 4.25195 88.3848 3.78906 89.0879 3.53125C89.8027 3.26172 90.6992 3.08008 91.7773 2.98633ZM122.029 27.2793C121.373 27.2441 120.734 27.1973 120.113 27.1387C119.504 27.0684 118.947 26.9746 118.443 26.8574C117.939 26.7402 117.512 26.5879 117.16 26.4004C116.82 26.2012 116.598 25.9551 116.492 25.6621L106.771 1.65039C106.572 1.66211 106.379 1.74414 106.191 1.89648C106.109 3.34961 105.664 4.51562 104.855 5.39453L105.26 6.43164L97.8418 25.082C97.373 26.2539 95.9316 26.9863 93.5176 27.2793C93.4473 27.4434 93.4121 27.5898 93.4121 27.7188C93.4121 27.8594 93.4473 28 93.5176 28.1406C94.8535 28.0938 95.9258 28.0586 96.7344 28.0352C97.5547 28.0117 98.1172 28 98.4219 28C98.6914 28 99.3008 28.0117 100.25 28.0352C101.211 28.0586 102.512 28.0938 104.152 28.1406C104.223 28 104.258 27.8594 104.258 27.7188C104.258 27.5898 104.223 27.4434 104.152 27.2793C103.18 27.1855 102.389 27.0859 101.779 26.9805C101.17 26.8633 100.695 26.7402 100.355 26.6113C100.016 26.4824 99.7871 26.3418 99.6699 26.1895C99.5527 26.0254 99.4941 25.8438 99.4941 25.6445C99.4941 25.5156 99.5176 25.3867 99.5645 25.2578L102.131 18.8242C103.432 18.8008 104.48 18.7832 105.277 18.7715C106.086 18.7598 106.643 18.7539 106.947 18.7539C107.615 18.7539 108.207 18.7598 108.723 18.7715C109.25 18.7715 109.701 18.7773 110.076 18.7891L112.625 25.2578C112.684 25.4336 112.713 25.5684 112.713 25.6621C112.713 25.9785 112.549 26.2598 112.221 26.5059C111.904 26.752 111.512 26.9219 111.043 27.0156L109.145 27.2793C109.074 27.4434 109.039 27.5898 109.039 27.7188C109.039 27.8594 109.074 28 109.145 28.1406C110.141 28.1055 111.148 28.0762 112.168 28.0527C113.199 28.0293 114.254 28.0176 115.332 28.0176C116.41 28.0176 117.5 28.0293 118.602 28.0527C119.715 28.0762 120.857 28.1055 122.029 28.1406C122.111 27.9766 122.152 27.8359 122.152 27.7188C122.152 27.6484 122.141 27.5781 122.117 27.5078C122.094 27.4375 122.064 27.3613 122.029 27.2793ZM106.947 17.3828C105.248 17.3828 103.848 17.3594 102.746 17.3125L106.086 8.69922H106.156L109.514 17.3477C108.881 17.3711 108.025 17.3828 106.947 17.3828ZM106.121 10.5449L103.783 16.627C105.201 16.6973 106.76 16.709 108.459 16.6621L106.121 10.5449ZM122.574 26.6289C122.867 27.332 122.855 28.0762 122.539 28.8613H108.6C108.318 28.0527 108.318 27.3086 108.6 26.6289C109.877 26.5586 110.779 26.4297 111.307 26.2422C111.834 26.043 112.016 25.7266 111.852 25.293L109.549 19.4746C107.381 19.3926 105.061 19.416 102.588 19.5449L100.32 25.3633C100.25 25.5625 100.303 25.7441 100.479 25.9082C100.666 26.0605 100.965 26.1836 101.375 26.2773C101.785 26.3711 102.266 26.4473 102.816 26.5059C103.367 26.5645 103.988 26.6055 104.68 26.6289C104.973 27.332 104.961 28.0762 104.645 28.8613C100.801 28.7207 96.9277 28.7207 93.0254 28.8613C92.709 28.0762 92.6973 27.332 92.9902 26.6289C95.4043 26.3477 96.7695 25.8203 97.0859 25.0469L104.504 6.39648C104.457 6.30273 104.363 6.0918 104.223 5.76367C104.094 5.42383 104.018 5.20117 103.994 5.0957C104.908 4.16992 105.412 2.97461 105.506 1.50977C106.537 1.00586 107.75 0.71875 109.145 0.648438L119.006 25.1172C119.229 25.668 119.58 26.0371 120.061 26.2246C120.541 26.4004 121.379 26.5352 122.574 26.6289ZM146.023 16.7676V14.4648C146.023 11.7578 145.965 8.57617 145.848 4.91992C145.824 4.29883 144.541 3.88281 141.998 3.67188C141.834 3.26172 141.752 2.88672 141.752 2.54688C141.752 2.33594 141.834 1.97852 141.998 1.47461C143.779 1.54492 145.566 1.58008 147.359 1.58008C149.164 1.58008 151.016 1.54492 152.914 1.47461C153.078 1.97852 153.16 2.33594 153.16 2.54688C153.16 2.88672 153.078 3.26172 152.914 3.67188C150.488 3.90625 149.264 4.32227 149.24 4.91992C149.088 7.39258 149.012 11.0078 149.012 15.7656C149.012 21.1328 149.088 25.4746 149.24 28.791L147.799 28.8262L131.117 8.41797C131.117 8.62891 131.111 9.01562 131.1 9.57812C131.088 10.1289 131.082 10.5566 131.082 10.8613C131.082 16.5215 131.158 21.3438 131.311 25.3281C131.334 25.9609 132.617 26.3828 135.16 26.5938C135.324 27.0039 135.406 27.3789 135.406 27.7188C135.406 27.9766 135.324 28.3574 135.16 28.8613C133.355 28.791 131.568 28.7559 129.799 28.7559C127.994 28.7559 126.143 28.791 124.244 28.8613C124.08 28.3574 123.998 27.9766 123.998 27.7188C123.998 27.3789 124.08 27.0039 124.244 26.5938C126.67 26.3594 127.895 25.9375 127.918 25.3281C128.059 22.8672 128.129 19.2578 128.129 14.5C128.129 10.8555 128.082 7.60352 127.988 4.74414C127.227 4.14648 126.066 3.78906 124.508 3.67188C124.332 3.35547 124.244 2.99219 124.244 2.58203C124.244 2.14844 124.355 1.75586 124.578 1.4043C127.027 1.52148 130.121 1.58008 133.859 1.58008L146.023 16.7676ZM148.291 15.7656C148.291 12.2148 148.367 8.59961 148.52 4.91992C148.566 3.86523 149.861 3.2207 152.404 2.98633C152.498 2.78711 152.498 2.51172 152.404 2.16016C150.189 2.23047 148.619 2.26562 147.693 2.26562C146.229 2.26562 144.559 2.23047 142.684 2.16016C142.59 2.51172 142.59 2.78711 142.684 2.98633C145.25 3.2207 146.545 3.86523 146.568 4.91992C146.686 8.57617 146.744 11.7578 146.744 14.4648C146.744 16.0469 146.721 18.1797 146.674 20.8633L131.521 2.30078C128.885 2.30078 126.699 2.25391 124.965 2.16016C124.871 2.44141 124.871 2.7168 124.965 2.98633C126.477 3.08008 127.725 3.56055 128.709 4.42773C128.803 7.27539 128.85 10.6328 128.85 14.5C128.85 18.0508 128.779 21.6602 128.639 25.3281C128.592 26.3945 127.297 27.0449 124.754 27.2793C124.66 27.4668 124.66 27.7422 124.754 28.1055C126.957 28.0352 128.527 28 129.465 28C130.93 28 132.6 28.0352 134.475 28.1055C134.568 27.7422 134.568 27.4668 134.475 27.2793C131.908 27.0449 130.613 26.3945 130.59 25.3281C130.473 21.6836 130.414 18.5078 130.414 15.8008C130.414 12.707 130.449 9.64258 130.52 6.60742H130.695L148.15 28.1055L148.484 28.0703C148.355 25.3164 148.291 21.2148 148.291 15.7656ZM155.445 35.4531V37.3516H177.559V35.4531H155.445ZM154.742 38.0723V34.7324H179.545V38.0723H154.742ZM190.988 0.859375C192.664 0.859375 194.205 1.09375 195.611 1.5625C197.018 2.03125 198.283 2.33594 199.408 2.47656C198.787 4.65625 198.764 7.00586 199.338 9.52539C198.74 10.0293 198.055 10.3223 197.281 10.4043C197.188 10.1816 197.018 9.71875 196.771 9.01562C196.537 8.30078 196.309 7.71484 196.086 7.25781C195.875 6.80078 195.576 6.2793 195.189 5.69336C194.814 5.10742 194.311 4.64453 193.678 4.30469C193.057 3.95312 192.342 3.71289 191.533 3.58398C190.35 3.68945 189.436 4.05273 188.791 4.67383C188.146 5.29492 187.824 6.09766 187.824 7.08203C187.824 8.08984 188.082 8.92188 188.598 9.57812C189.113 10.2227 189.781 10.709 190.602 11.0371C191.434 11.3535 192.348 11.6348 193.344 11.8809C194.34 12.1152 195.33 12.4082 196.314 12.7598C197.299 13.0996 198.201 13.5508 199.021 14.1133C199.854 14.6641 200.527 15.4902 201.043 16.5918C201.559 17.6934 201.816 19.0352 201.816 20.6172C201.816 22.5391 201.26 24.1914 200.146 25.5742C199.033 26.957 197.721 27.9473 196.209 28.5449C194.697 29.1426 193.15 29.4414 191.568 29.4414C188.088 29.4414 184.643 28.6738 181.232 27.1387C181.303 25.627 181.338 24.7012 181.338 24.3613C181.338 22.4629 181.156 20.4238 180.793 18.2441C181.848 17.7402 183.025 17.7168 184.326 18.1738C184.76 20.834 185.598 22.873 186.84 24.291C188.094 25.709 189.465 26.5 190.953 26.6641C192.348 26.5703 193.42 26.1191 194.17 25.3105C194.932 24.4902 195.312 23.4531 195.312 22.1992C195.312 21.1445 195.066 20.2539 194.574 19.5273C194.082 18.7891 193.432 18.2207 192.623 17.8223C191.814 17.4121 190.936 17.043 189.986 16.7148C189.049 16.3867 188.1 16.041 187.139 15.6777C186.178 15.3027 185.293 14.8574 184.484 14.3418C183.688 13.8262 183.043 13.1055 182.551 12.1797C182.059 11.2539 181.812 10.1289 181.812 8.80469C181.812 7.60938 182 6.53711 182.375 5.58789C182.762 4.63867 183.26 3.87695 183.869 3.30273C184.49 2.72852 185.211 2.24805 186.031 1.86133C186.863 1.47461 187.684 1.21094 188.492 1.07031C189.312 0.929688 190.145 0.859375 190.988 0.859375ZM190.988 1.58008C190.004 1.58008 189.049 1.69727 188.123 1.93164C187.197 2.1543 186.295 2.52344 185.416 3.03906C184.549 3.55469 183.852 4.31055 183.324 5.30664C182.797 6.30273 182.533 7.46875 182.533 8.80469C182.533 9.98828 182.779 11.0078 183.271 11.8633C183.764 12.707 184.408 13.3633 185.205 13.832C186.014 14.3008 186.898 14.7168 187.859 15.0801C188.82 15.4316 189.77 15.7891 190.707 16.1523C191.656 16.5156 192.535 16.9258 193.344 17.3828C194.152 17.8398 194.803 18.4785 195.295 19.2988C195.787 20.1074 196.033 21.0742 196.033 22.1992C196.033 23.7578 195.535 25.0176 194.539 25.9785C193.543 26.9395 192.131 27.4199 190.303 27.4199C188.545 27.4199 186.91 26.6875 185.398 25.2227C183.887 23.7578 182.891 21.5664 182.41 18.6484C182.176 18.4961 181.9 18.4961 181.584 18.6484C181.9 20.4883 182.059 22.3926 182.059 24.3613C182.059 24.9121 182.035 25.6914 181.988 26.6992C184.895 28.0469 187.666 28.7207 190.303 28.7207C192.482 28.7207 194.498 28.0762 196.35 26.7871C198.201 25.4863 199.127 23.6699 199.127 21.3379C199.127 20.0137 198.869 18.8945 198.354 17.9805C197.838 17.0547 197.164 16.334 196.332 15.8184C195.5 15.3027 194.586 14.8574 193.59 14.4824C192.594 14.1074 191.604 13.7559 190.619 13.4277C189.635 13.0879 188.727 12.7129 187.895 12.3027C187.074 11.8926 186.406 11.3125 185.891 10.5625C185.375 9.80078 185.117 8.88086 185.117 7.80273C185.117 6.29102 185.627 5.08398 186.646 4.18164C187.666 3.2793 189.113 2.82812 190.988 2.82812C194.246 2.82812 196.49 5.08398 197.721 9.5957C198.084 9.6543 198.336 9.57227 198.477 9.34961C198.09 6.49023 197.24 4.48047 195.928 3.32031C194.627 2.16016 192.98 1.58008 190.988 1.58008ZM205.016 10.2109C204.125 9.85938 203.539 9.40234 203.258 8.83984C203.926 7.57422 204.371 6.72461 204.594 6.29102C204.828 5.85742 205.092 5.19531 205.385 4.30469C205.689 3.40234 205.9 2.49414 206.018 1.58008H218.199H232.842C233.135 3.87695 234.049 6.29687 235.584 8.83984C235.314 9.40234 234.688 9.85938 233.703 10.2109C232.742 8.46484 231.324 7.01172 229.449 5.85156C227.586 4.67969 225.166 4.09375 222.189 4.09375C222.096 7 222.049 10.4453 222.049 14.4297C222.049 19.5156 222.107 23.2246 222.225 25.5566C222.248 25.9902 223.555 26.3359 226.145 26.5938C226.344 27.3438 226.32 28.0996 226.074 28.8613C222.277 28.7676 220.068 28.7207 219.447 28.7207C218.51 28.7207 215.885 28.7676 211.572 28.8613C211.279 28.0527 211.279 27.2969 211.572 26.5938C214.115 26.3359 215.398 26.002 215.422 25.5918C215.539 22.6387 215.598 18.918 215.598 14.4297C215.598 10.6797 215.551 7.26953 215.457 4.19922C210.582 4.83203 207.102 6.83594 205.016 10.2109ZM209.99 3.47852L216.143 3.30273C216.26 7.19336 216.318 10.9023 216.318 14.4297C216.318 18.9648 216.26 22.6855 216.143 25.5918C216.119 26.459 214.76 27.0215 212.064 27.2793C211.971 27.4668 211.971 27.7422 212.064 28.1055C214.057 28.0352 216.102 28 218.199 28C220.695 28 223.092 28.0352 225.389 28.1055C225.482 27.8945 225.482 27.6191 225.389 27.2793C221.498 27.0449 219.541 26.4824 219.518 25.5918C219.4 21.7012 219.342 17.9805 219.342 14.4297C219.342 9.91797 219.4 6.20898 219.518 3.30273L222.225 3.37305C228.061 3.51367 231.998 5.49414 234.037 9.31445C234.342 9.19727 234.541 9.03906 234.635 8.83984C233.463 6.44922 232.15 4.76172 230.697 3.77734C229.244 2.79297 227.082 2.30078 224.211 2.30078H218.199C216.922 2.30078 214.994 2.29492 212.416 2.2832C209.838 2.27148 207.922 2.26562 206.668 2.26562C206.621 2.66406 206.539 3.08008 206.422 3.51367C206.305 3.94727 206.193 4.31641 206.088 4.62109C205.994 4.91406 205.83 5.30664 205.596 5.79883C205.373 6.29102 205.221 6.625 205.139 6.80078C205.057 6.96484 204.869 7.32812 204.576 7.89062C204.295 8.45312 204.131 8.76953 204.084 8.83984C204.178 9.03906 204.383 9.19727 204.699 9.31445C205.531 7.94336 206.176 6.92969 206.633 6.27344C207.09 5.61719 207.629 4.99023 208.25 4.39258C208.883 3.7832 209.463 3.47852 209.99 3.47852ZM250.684 3.58398C249.781 3.6543 248.973 3.87109 248.258 4.23438C247.543 4.59766 246.916 5.07227 246.377 5.6582C245.838 6.23242 245.375 6.89453 244.988 7.64453C244.613 8.38281 244.303 9.16797 244.057 10C243.822 10.832 243.646 11.6934 243.529 12.584C243.424 13.4629 243.371 14.3301 243.371 15.1855C243.371 16.041 243.424 16.9141 243.529 17.8047C243.646 18.6836 243.828 19.5391 244.074 20.3711C244.32 21.2031 244.631 21.9883 245.006 22.7266C245.393 23.4648 245.855 24.1211 246.395 24.6953C246.945 25.2578 247.572 25.7148 248.275 26.0664C248.99 26.418 249.793 26.6289 250.684 26.6992C251.598 26.6289 252.412 26.418 253.127 26.0664C253.842 25.7031 254.469 25.2402 255.008 24.6777C255.559 24.1035 256.021 23.4473 256.396 22.709C256.783 21.959 257.094 21.1738 257.328 20.3535C257.574 19.5215 257.75 18.666 257.855 17.7871C257.973 16.8965 258.031 16.0293 258.031 15.1855C258.031 14.3301 257.973 13.4629 257.855 12.584C257.75 11.6934 257.574 10.832 257.328 10C257.094 9.15625 256.783 8.36523 256.396 7.62695C256.021 6.87695 255.559 6.21484 255.008 5.64062C254.469 5.06641 253.836 4.59766 253.109 4.23438C252.395 3.87109 251.586 3.6543 250.684 3.58398ZM250.068 27.4551C248.908 27.4551 247.871 27.2852 246.957 26.9453C246.043 26.5938 245.234 26.125 244.531 25.5391C243.84 24.9414 243.248 24.2441 242.756 23.4473C242.275 22.6504 241.877 21.8008 241.561 20.8984C241.256 19.9844 241.033 19.041 240.893 18.0684C240.752 17.084 240.682 16.123 240.682 15.1855C240.682 14.248 240.752 13.293 240.893 12.3203C241.033 11.3359 241.256 10.3867 241.561 9.47266C241.865 8.55859 242.264 7.69727 242.756 6.88867C243.248 6.08008 243.84 5.37695 244.531 4.7793C245.223 4.18164 246.025 3.70703 246.939 3.35547C247.865 3.00391 248.908 2.82812 250.068 2.82812C251.135 2.82812 252.09 3.00391 252.934 3.35547C253.777 3.69531 254.516 4.16992 255.148 4.7793C255.793 5.37695 256.344 6.08008 256.801 6.88867C257.258 7.69727 257.627 8.55859 257.908 9.47266C258.201 10.3867 258.412 11.3359 258.541 12.3203C258.682 13.293 258.752 14.248 258.752 15.1855C258.752 16.123 258.688 17.0781 258.559 18.0508C258.43 19.0117 258.219 19.9492 257.926 20.8633C257.645 21.7656 257.275 22.6211 256.818 23.4297C256.373 24.2266 255.828 24.9238 255.184 25.5215C254.539 26.1191 253.795 26.5938 252.951 26.9453C252.107 27.2852 251.146 27.4551 250.068 27.4551ZM250.068 28.7207C250.877 28.7207 251.75 28.6387 252.688 28.4746C253.625 28.3105 254.557 28.0293 255.482 27.6309C256.42 27.2324 257.322 26.6992 258.189 26.0312C259.057 25.3633 259.818 24.5312 260.475 23.5352C261.143 22.5273 261.676 21.3379 262.074 19.9668C262.473 18.584 262.672 16.9902 262.672 15.1855C262.672 13.416 262.473 11.8516 262.074 10.4922C261.688 9.12109 261.166 7.93164 260.51 6.92383C259.854 5.91602 259.098 5.07227 258.242 4.39258C257.387 3.71289 256.49 3.16797 255.553 2.75781C254.615 2.33594 253.672 2.03711 252.723 1.86133C251.785 1.67383 250.9 1.58008 250.068 1.58008C249.26 1.58008 248.369 1.66211 247.396 1.82617C246.424 1.97852 245.445 2.25391 244.461 2.65234C243.477 3.03906 242.521 3.56641 241.596 4.23438C240.67 4.90234 239.85 5.74023 239.135 6.74805C238.42 7.75586 237.846 8.95703 237.412 10.3516C236.979 11.7344 236.762 13.3457 236.762 15.1855C236.762 16.9668 236.967 18.5371 237.377 19.8965C237.799 21.2559 238.355 22.4395 239.047 23.4473C239.738 24.4434 240.535 25.2812 241.438 25.9609C242.352 26.6289 243.301 27.168 244.285 27.5781C245.27 27.9883 246.26 28.2812 247.256 28.457C248.252 28.6328 249.189 28.7207 250.068 28.7207ZM250.684 29.5117C248.328 29.5117 246.242 29.166 244.426 28.4746C242.609 27.7949 241.08 26.834 239.838 25.5918C238.596 24.3379 237.652 22.832 237.008 21.0742C236.363 19.3047 236.041 17.3418 236.041 15.1855C236.041 13.0293 236.363 11.0723 237.008 9.31445C237.652 7.54492 238.596 6.03906 239.838 4.79688C241.08 3.54297 242.609 2.57617 244.426 1.89648C246.242 1.20508 248.328 0.859375 250.684 0.859375C252.898 0.859375 254.908 1.17578 256.713 1.80859C258.529 2.44141 260.076 3.36719 261.354 4.58594C262.643 5.79297 263.633 7.28711 264.324 9.06836C265.027 10.8496 265.379 12.8887 265.379 15.1855C265.379 17.4941 265.027 19.5391 264.324 21.3203C263.633 23.0898 262.643 24.584 261.354 25.8027C260.076 27.0215 258.529 27.9414 256.713 28.5625C254.908 29.1953 252.898 29.5117 250.684 29.5117ZM276.523 3.37305H276.559C277.285 3.32617 278.223 3.30273 279.371 3.30273C281.152 3.30273 282.512 3.85352 283.449 4.95508C284.398 6.05664 284.873 7.48633 284.873 9.24414C284.873 11.0254 284.439 12.5723 283.572 13.8848C282.717 15.1855 281.375 15.8359 279.547 15.8359C278.469 15.8359 277.402 15.7012 276.348 15.4316C276.348 11.3066 276.406 7.28711 276.523 3.37305ZM284.152 9.24414C284.152 7.73242 283.695 6.46094 282.781 5.42969C281.879 4.39844 280.684 3.94141 279.195 4.05859C279.102 8.57031 279.055 12.1855 279.055 14.9043C279.289 14.9746 279.646 15.0332 280.127 15.0801C281.498 14.9277 282.512 14.2832 283.168 13.1465C283.824 12.0098 284.152 10.709 284.152 9.24414ZM273.148 25.5918C273.125 26.459 271.766 27.0215 269.07 27.2793C268.977 27.4668 268.977 27.7422 269.07 28.1055C271.062 28.0352 273.107 28 275.205 28C277.701 28 280.098 28.0352 282.395 28.1055C282.488 27.918 282.488 27.6426 282.395 27.2793C278.504 27.0449 276.547 26.4824 276.523 25.5918C276.406 22.2988 276.348 19.3574 276.348 16.7676C277.672 17.0371 278.896 17.1719 280.021 17.1719C281.943 20.7461 284.475 24.3555 287.615 28C288.213 28 289.074 28.0059 290.199 28.0176C291.336 28.0293 292.355 28.041 293.258 28.0527C294.172 28.0645 295.039 28.082 295.859 28.1055C295.953 27.8945 295.953 27.6191 295.859 27.2793C293.938 27.1387 292.314 26.6699 290.99 25.873C289.678 25.0645 288.143 23.5762 286.385 21.4082C285.189 19.8965 284.111 18.3027 283.15 16.627C284.885 16.0527 286.25 15.0977 287.246 13.7617C288.242 12.4258 288.74 10.9199 288.74 9.24414C288.74 7.13477 288.061 5.42969 286.701 4.12891C285.342 2.81641 283.461 2.16016 281.059 2.16016C273.137 2.25391 269.152 2.25391 269.105 2.16016C269.035 2.44141 269.035 2.7168 269.105 2.98633C271.801 3.24414 273.16 3.80664 273.184 4.67383C273.301 7.42773 273.359 10.7031 273.359 14.5C273.359 18.2148 273.289 21.9121 273.148 25.5918ZM272.428 25.5566C272.568 22.627 272.639 18.9414 272.639 14.5C272.639 10.7266 272.58 7.46289 272.463 4.70898C272.439 4.27539 271.133 3.92969 268.543 3.67188C268.344 2.89844 268.367 2.14258 268.613 1.4043C269.902 1.47461 271.303 1.50977 272.814 1.50977C274.326 1.50977 276.061 1.49805 278.018 1.47461C279.975 1.45117 281.41 1.43945 282.324 1.43945C285.16 1.43945 287.387 2.16016 289.004 3.60156C290.621 5.03125 291.43 6.91211 291.43 9.24414C291.43 10.8965 290.955 12.4199 290.006 13.8145C289.057 15.209 287.779 16.2637 286.174 16.9785C286.971 18.2793 287.896 19.6152 288.951 20.9863C290.193 22.6387 291.412 23.9512 292.607 24.9238C293.814 25.8965 295.15 26.4531 296.615 26.5938C296.803 27.3438 296.779 28.0996 296.545 28.8613C294.869 28.8145 291.787 28.7676 287.299 28.7207C284.006 24.877 281.434 21.2676 279.582 17.8926H279.055C279.055 20.0723 279.113 22.627 279.23 25.5566C279.23 25.627 279.26 25.6973 279.318 25.7676C279.377 25.8379 279.605 25.9492 280.004 26.1016C280.402 26.2539 281.006 26.3887 281.814 26.5059C282.635 26.6113 283.092 26.6758 283.186 26.6992C283.385 27.3555 283.35 28.0762 283.08 28.8613C278.756 28.7676 276.131 28.7207 275.205 28.7207C274.572 28.7207 272.363 28.7676 268.578 28.8613C268.285 28.0527 268.285 27.2969 268.578 26.5938C271.121 26.3359 272.404 25.9902 272.428 25.5566ZM313.227 2.30078H304.385C302.92 2.30078 300.863 2.25391 298.215 2.16016V2.98633C300.91 3.24414 302.27 3.80664 302.293 4.67383C302.41 7.42773 302.469 10.7031 302.469 14.5C302.469 18.2148 302.398 21.9121 302.258 25.5918C302.234 26.459 300.875 27.0215 298.18 27.2793C298.133 27.6895 298.133 27.9648 298.18 28.1055C300.441 28.0352 305.697 28 313.947 28C316.83 28 318.998 27.5078 320.451 26.5234C321.904 25.5391 323.217 23.8457 324.389 21.4434C324.295 21.2559 324.09 21.1035 323.773 20.9863C321.641 24.9473 317.709 26.9277 311.979 26.9277H305.633C305.516 21.8066 305.457 18.0625 305.457 15.6953L311.188 15.6602C311.691 15.6602 312.16 15.7422 312.594 15.9062C313.039 16.0703 313.391 16.2402 313.648 16.416C313.918 16.5801 314.229 16.9023 314.58 17.3828C314.932 17.8633 315.178 18.2148 315.318 18.4375C315.459 18.6484 315.705 19.0938 316.057 19.7734C316.408 20.4531 316.643 20.8926 316.76 21.0918C317.123 20.9395 317.352 20.7812 317.445 20.6172C316.273 18.625 315.688 16.791 315.688 15.1152C315.688 14.3887 315.852 13.5039 316.18 12.4609C316.52 11.418 316.941 10.4629 317.445 9.5957C317.352 9.43164 317.123 9.2793 316.76 9.13867C316.666 9.30273 316.479 9.6543 316.197 10.1934C315.928 10.7324 315.746 11.084 315.652 11.248C315.57 11.4004 315.4 11.6875 315.143 12.1094C314.896 12.5312 314.703 12.8125 314.562 12.9531C314.422 13.0938 314.211 13.3047 313.93 13.5859C313.66 13.8555 313.396 14.043 313.139 14.1484C312.893 14.2422 312.6 14.3301 312.26 14.4121C311.92 14.4941 311.562 14.5352 311.188 14.5352C308.668 14.5352 306.758 14.5117 305.457 14.4648C305.457 11.6289 305.527 7.93164 305.668 3.37305H311.258C316.988 3.37305 320.92 5.35352 323.053 9.31445C323.369 9.19727 323.574 9.03906 323.668 8.83984C322.496 6.44922 321.184 4.76172 319.73 3.77734C318.277 2.79297 316.109 2.30078 313.227 2.30078ZM315.652 9.71875L316.408 8.24219C317.393 8.59375 318.014 9.04492 318.271 9.5957C317.744 10.5098 317.299 11.5 316.936 12.5664C316.584 13.6211 316.408 14.4707 316.408 15.1152C316.408 16.6738 317.029 18.5078 318.271 20.6172C317.99 21.2148 317.393 21.6719 316.479 21.9883C316.045 21.2734 315.729 20.7227 315.529 20.3359C315.049 19.5391 314.668 18.9473 314.387 18.5605C314.117 18.1621 313.707 17.7637 313.156 17.3652C312.605 16.9668 311.996 16.7559 311.328 16.7324H308.164C308.164 19.3223 308.211 22.4805 308.305 26.207H311.943C314.92 26.207 317.34 25.627 319.203 24.4668C321.078 23.2949 322.496 21.8301 323.457 20.0723C324.441 20.4355 325.062 20.8926 325.32 21.4434C323.785 23.9863 322.877 26.4121 322.596 28.7207H308.006C303.377 28.7207 299.938 28.7559 297.688 28.8262C297.441 28.0645 297.43 27.3203 297.652 26.5938C300.219 26.3359 301.514 25.9902 301.537 25.5566C301.678 21.877 301.748 18.1914 301.748 14.5C301.748 10.7266 301.689 7.46289 301.572 4.70898C301.549 4.27539 300.242 3.92969 297.652 3.67188C297.43 2.85156 297.453 2.0957 297.723 1.4043C301.32 1.52148 303.705 1.58008 304.877 1.58008H321.875C322.156 3.87695 323.07 6.29687 324.617 8.83984C324.348 9.40234 323.721 9.85938 322.736 10.2109C321.775 8.46484 320.357 7.01172 318.482 5.85156C316.619 4.67969 314.199 4.09375 311.223 4.09375H308.34C308.223 8.30078 308.164 11.5293 308.164 13.7793C308.902 13.8027 309.969 13.8145 311.363 13.8145C312.348 13.8145 313.133 13.4863 313.719 12.8301C314.305 12.1621 314.949 11.125 315.652 9.71875Z" fill="black"/>
</svg>
